<svg xmlns="http://www.w3.org/2000/svg" xmlns:xlink="http://www.w3.org/1999/xlink" version="1.1" width="256" height="256" viewBox="0 0 256 256" xml:space="preserve">

<defs>
</defs>
<g style="stroke: none; stroke-width: 0; stroke-dasharray: none; stroke-linecap: butt; stroke-linejoin: miter; stroke-miterlimit: 10; fill: none; fill-rule: nonzero; opacity: 1;" transform="translate(1.4065934065934016 1.4065934065934016) scale(2.81 2.81)" >
	<circle cx="45" cy="45" r="44" style="stroke: none; stroke-width: 1; stroke-dasharray: none; stroke-linecap: butt; stroke-linejoin: miter; stroke-miterlimit: 10; fill: rgb(255,109,122); fill-rule: nonzero; opacity: 1;" transform="  matrix(1 0 0 1 0 0) "/>
	<path d="M 74.95 45 c -0.106 -0.661 -1.001 -1.297 -2.473 -1.901 l 1.325 -10.844 c 0.077 -0.634 -0.477 -1.164 -1.107 -1.061 l -2.637 0.433 c -0.948 0.155 -1.74 0.805 -2.079 1.703 l -2.946 7.75 c -4.96 -0.995 -11.134 -1.826 -16.974 -2.431 l 2.882 -22.605 c 0.111 -0.815 -0.57 -1.519 -1.389 -1.436 l -4.345 0.441 c -1.469 0.149 -2.738 1.089 -3.309 2.45 l -8.41 20.087 c -2.091 -0.061 -3.611 -0.033 -4.282 0.096 C 25.087 38.475 15.05 40.804 15.05 45 c 0 4.196 9.976 7.532 14.158 7.879 c 0.85 0.071 2.316 0.06 4.209 -0.021 L 41.9 72.5 c 0.571 1.361 1.84 2.301 3.309 2.45 l 4.345 0.441 c 0.818 0.083 1.499 -0.621 1.389 -1.436 L 48.06 51.644 c 5.86 -0.655 12.03 -1.528 16.982 -2.539 l 2.938 7.565 c 0.339 0.898 1.131 1.548 2.079 1.703 l 2.637 0.433 c 0.63 0.103 1.183 -0.427 1.107 -1.061 l -1.304 -10.668 C 74.146 46.409 75.065 45.712 74.95 45 z" style="stroke: none; stroke-width: 1; stroke-dasharray: none; stroke-linecap: butt; stroke-linejoin: miter; stroke-miterlimit: 10; fill: rgb(214,244,252); fill-rule: nonzero; opacity: 1;" transform=" matrix(1 0 0 1 0 0) " stroke-linecap="round" />
	<path d="M 51.314 14.294 c -0.487 -0.504 -1.172 -0.749 -1.861 -0.681 l -4.345 0.441 c -1.834 0.186 -3.417 1.358 -4.13 3.059 l -8.2 19.585 c -7.007 0.133 -13.657 1.136 -16.807 4.055 c -1.275 1.182 -1.921 2.61 -1.921 4.246 c 0 4.785 5.248 7.536 15.597 8.176 c 0.021 0.001 0.042 0.002 0.063 0.002 c 0.524 0 0.964 -0.408 0.997 -0.938 c 0.034 -0.551 -0.385 -1.025 -0.937 -1.06 c -6.259 -0.387 -13.72 -1.773 -13.72 -6.18 c 0 -1.071 0.419 -1.98 1.281 -2.779 c 3.27 -3.031 12.758 -4.191 26.037 -3.179 c 0.54 0.037 1.031 -0.371 1.073 -0.921 c 0.042 -0.55 -0.371 -1.031 -0.921 -1.073 c -2.713 -0.206 -5.643 -0.349 -8.567 -0.364 l 7.87 -18.797 c 0.429 -1.024 1.383 -1.73 2.488 -1.842 l 4.344 -0.441 c 0.114 -0.016 0.182 0.038 0.223 0.081 c 0.034 0.036 0.09 0.112 0.073 0.232 l -2.196 16.998 c -0.07 0.547 0.316 1.049 0.864 1.12 c 0.552 0.077 1.05 -0.316 1.12 -0.864 l 2.195 -16.992 C 52.027 15.485 51.802 14.798 51.314 14.294 z" style="stroke: none; stroke-width: 1; stroke-dasharray: none; stroke-linecap: butt; stroke-linejoin: miter; stroke-miterlimit: 10; fill: rgb(0,0,0); fill-rule: nonzero; opacity: 1;" transform=" matrix(1 0 0 1 0 0) " stroke-linecap="round" />
	<path d="M 75.95 45 c 0 -0.8 -0.916 -1.56 -2.421 -2.27 l 1.266 -10.356 c 0.074 -0.617 -0.141 -1.218 -0.59 -1.648 c -0.45 -0.431 -1.059 -0.62 -1.673 -0.519 l -2.637 0.433 c -1.296 0.213 -2.389 1.109 -2.851 2.335 l -2.68 7.049 c -2.235 -0.477 -4.572 -0.903 -6.797 -1.272 c -0.547 -0.087 -1.06 0.279 -1.149 0.824 c -0.091 0.545 0.278 1.06 0.823 1.15 c 9.519 1.575 15.144 3.385 16.505 4.306 c -1.869 1.413 -12.074 4.257 -25.674 5.521 c -0.053 -0.002 -0.102 -0.018 -0.156 -0.012 c -0.037 0.005 -0.066 0.026 -0.102 0.035 c -0.64 0.058 -1.279 0.117 -1.934 0.169 c -0.551 0.043 -0.962 0.524 -0.919 1.075 c 0.041 0.523 0.479 0.922 0.996 0.922 c 0.026 0 0.052 -0.001 0.079 -0.003 c 0.369 -0.029 0.752 -0.061 1.142 -0.096 l 2.771 21.446 c 0.016 0.114 -0.04 0.191 -0.074 0.227 c -0.041 0.043 -0.118 0.092 -0.222 0.081 l -4.346 -0.441 c -1.105 -0.111 -2.058 -0.817 -2.495 -1.858 l -5.183 -11.763 c -0.222 -0.505 -0.812 -0.732 -1.318 -0.512 c -0.505 0.223 -0.734 0.813 -0.512 1.318 l 5.176 11.746 c 0.713 1.701 2.296 2.873 4.13 3.059 l 4.345 0.441 c 0.078 0.008 0.155 0.012 0.233 0.012 c 0.612 0 1.196 -0.246 1.629 -0.692 c 0.486 -0.504 0.712 -1.19 0.619 -1.879 l -2.761 -21.375 c 4.655 -0.481 10.288 -1.293 15.187 -2.339 l 2.684 6.91 c 0.464 1.229 1.557 2.125 2.852 2.337 l 2.637 0.433 c 0.108 0.019 0.217 0.027 0.324 0.027 c 0.5 0 0.979 -0.191 1.349 -0.545 c 0.449 -0.431 0.664 -1.031 0.589 -1.65 l -1.257 -10.28 C 75.049 46.606 75.95 45.82 75.95 45 z M 68.916 33.683 c 0.212 -0.562 0.712 -0.972 1.305 -1.069 l 2.59 -0.479 l -1.2 9.821 c -1.513 -0.533 -3.322 -1.032 -5.272 -1.49 L 68.916 33.683 z M 72.857 57.819 l -2.637 -0.434 c -0.593 -0.097 -1.093 -0.506 -1.308 -1.078 l -2.578 -6.639 c 1.986 -0.472 3.792 -0.984 5.292 -1.53 L 72.857 57.819 z" style="stroke: none; stroke-width: 1; stroke-dasharray: none; stroke-linecap: butt; stroke-linejoin: miter; stroke-miterlimit: 10; fill: rgb(0,0,0); fill-rule: nonzero; opacity: 1;" transform=" matrix(1 0 0 1 0 0) " stroke-linecap="round" />
	<path d="M 21.876 47.688 c -1.337 0 -3.279 -1.047 -3.279 -2.688 s 1.942 -2.689 3.279 -2.689 c 0.552 0 1 0.448 1 1 s -0.448 1 -1 1 c -0.564 0 -1.251 0.485 -1.279 0.691 c 0.028 0.201 0.715 0.686 1.279 0.686 c 0.552 0 1 0.447 1 1 S 22.429 47.688 21.876 47.688 z" style="stroke: none; stroke-width: 1; stroke-dasharray: none; stroke-linecap: butt; stroke-linejoin: miter; stroke-miterlimit: 10; fill: rgb(0,0,0); fill-rule: nonzero; opacity: 1;" transform=" matrix(1 0 0 1 0 0) " stroke-linecap="round" />
	<path d="M 76.885 13.279 c -0.025 -0.032 -0.036 -0.07 -0.066 -0.099 c -0.029 -0.029 -0.067 -0.041 -0.099 -0.066 C 68.579 5.015 57.365 0 45 0 C 20.187 0 0 20.187 0 45 c 0 12.365 5.015 23.579 13.115 31.721 c 0.025 0.032 0.036 0.07 0.066 0.099 c 0.029 0.029 0.067 0.041 0.099 0.066 C 21.421 84.985 32.635 90 45 90 c 24.813 0 45 -20.187 45 -45 C 90 32.635 84.985 21.421 76.885 13.279 z M 45 2 c 11.496 0 21.944 4.544 29.667 11.918 L 13.918 74.667 C 6.544 66.944 2 56.496 2 45 C 2 21.29 21.29 2 45 2 z M 45 88 c -11.496 0 -21.945 -4.544 -29.668 -11.919 l 60.749 -60.749 C 83.456 23.055 88 33.504 88 45 C 88 68.71 68.71 88 45 88 z" style="stroke: none; stroke-width: 1; stroke-dasharray: none; stroke-linecap: butt; stroke-linejoin: miter; stroke-miterlimit: 10; fill: rgb(0,0,0); fill-rule: nonzero; opacity: 1;" transform=" matrix(1 0 0 1 0 0) " stroke-linecap="round" />
</g>
</svg>